# xmcd CD database file
#
# Track frame offsets:
#	150
#	17387
#	45219
#	58516
#	78070
#	94296
#	115049
#	128005
#	154495
#
# Disc length: 2256 seconds
#
# Revision: 0
# Processed by: cddbd v1.5.1PL0 Copyright (c) Steve Scherf et al.
# Submitted via: CDex 1.40Release
#
DISCID=5d08ce09
DTITLE=Tony Lee King - All Alone
DYEAR=1999
DGENRE=Blues
TTITLE0=Hard Days
TTITLE1=Little Wing
TTITLE2=Brandy Man
TTITLE3=Treat Me Right
TTITLE4=Turn Around
TTITLE5=Thrill Is Gone
TTITLE6=Si Tu Ne Veux Pas
TTITLE7=All Alone
TTITLE8=In The Evening
EXTD=YEAR: 1999 ID3G: 0
EXTT0=
EXTT1=
EXTT2=
EXTT3=
EXTT4=
EXTT5=
EXTT6=
EXTT7=
EXTT8=
PLAYORDER=
